<svg id="logosandtypes_com" data-name="logosandtypes com" xmlns="http://www.w3.org/2000/svg" xmlns:xlink="http://www.w3.org/1999/xlink" viewBox="0 0 150 150"><defs><style>.cls-1{fill:none;}.cls-2,.cls-3{isolation:isolate;}.cls-2{fill:url(#radial-gradient);}.cls-3{fill:url(#radial-gradient-2);}</style><radialGradient id="radial-gradient" cx="87.49" cy="86.17" r="50.31" gradientUnits="userSpaceOnUse"><stop offset="0" stop-color="#bdc94d"/><stop offset="1" stop-color="#1c8a4b"/></radialGradient><radialGradient id="radial-gradient-2" cx="57.72" cy="56.41" r="43.91" xlink:href="#radial-gradient"/></defs><path class="cls-1" d="M0,.2H150v150H0Z" transform="translate(0 -0.2)"/><path class="cls-2" d="M60.86,131.32A48.23,48.23,0,0,1,49.26,130a.25.25,0,0,0-.34.19.24.24,0,0,0,.14.29,60.55,60.55,0,0,0,7.78,3.09,62.22,62.22,0,0,0,55.77-9.14l-9.18-9.18c-13.25,10.6-28.56,16.12-42.57,16.12m70.4-83.46c4.08,16.76-1.09,37.18-14.75,54.25l9.18,9.18a62,62,0,0,0,6.06-63.52.26.26,0,0,0-.49.09m-40.82-12c30.49.39,27.54,34.86,12.88,53H77.13L90.23,102c-13.17,9.77-33.65,16.44-46.7,4.46-6.88-6.88-6.72-16.9-6-22.26C40.08,60.43,66.9,35.4,90.44,35.87" transform="translate(0 -0.2)"/><path class="cls-3" d="M75.8,12.51A62,62,0,0,0,17.88,96.63c.46,1.2,1,2.39,1.49,3.57.15.23.55.08.48-.19C10,58.79,58.4,8.6,101.32,18.57a.27.27,0,0,0,.27-.4A60.49,60.49,0,0,0,75.8,12.51" transform="translate(0 -0.2)"/></svg>